<svg width="52" height="52" viewBox="0 0 52 52" fill="none" xmlns="http://www.w3.org/2000/svg">
<rect width="52" height="52" rx="26" fill="#691432"/>
<path d="M37 18.5C37 17.6716 36.3285 17 35.5 17H31.724C31.0921 15.2074 29.4007 14.0061 27.5 14H24.5C22.5993 14.0061 20.9079 15.2074 20.276 17H16.5C15.6716 17 15 17.6716 15 18.5C15 19.3284 15.6716 20 16.5 20H17V32.5C17 35.5376 19.4625 38 22.5 38H29.5C32.5376 38 35 35.5376 35 32.5V20H35.5C36.3285 20 37 19.3284 37 18.5ZM32 32.5C32 33.8807 30.8807 35 29.5 35H22.5C21.1193 35 20 33.8807 20 32.5V20H32V32.5Z" fill="#EF476F"/>
<path d="M23.5 32C24.3284 32 25 31.3284 25 30.5V24.5C25 23.6716 24.3284 23 23.5 23C22.6716 23 22 23.6716 22 24.5V30.5C22 31.3284 22.6716 32 23.5 32Z" fill="#EF476F"/>
<path d="M28.5 32C29.3284 32 30 31.3284 30 30.5V24.5C30 23.6716 29.3284 23 28.5 23C27.6716 23 27 23.6716 27 24.5V30.5C27 31.3284 27.6716 32 28.5 32Z" fill="#EF476F"/>
</svg>
